<svg width="136" height="136" xmlns="http://www.w3.org/2000/svg" xmlns:xlink="http://www.w3.org/1999/xlink" overflow="hidden"><defs><clipPath id="clip0"><rect x="1334" y="144" width="136" height="136"/></clipPath><clipPath id="clip1"><path d="M1402.63 144.121 1469.88 212.627 1401.37 279.879 1334.12 211.373Z" fill-rule="evenodd" clip-rule="evenodd"/></clipPath><clipPath id="clip2"><path d="M1402.63 144.121 1469.88 212.627 1401.37 279.879 1334.12 211.373Z" fill-rule="evenodd" clip-rule="evenodd"/></clipPath><clipPath id="clip3"><path d="M1402.63 144.121 1469.88 212.627 1401.37 279.879 1334.12 211.373Z" fill-rule="evenodd" clip-rule="evenodd"/></clipPath></defs><g clip-path="url(#clip0)" transform="translate(-1334 -144)"><g clip-path="url(#clip1)"><g clip-path="url(#clip2)"><g clip-path="url(#clip3)"><path d="M1402.44 248.563 1394.25 231.375 1394.18 231.303 1390.92 224.414 1446.29 217.288 1402.44 248.563ZM1389.1 230.125 1379.77 230.039 1386.88 225.579 1389.1 230.125 1389.1 230.125ZM1387.14 220.843C1386.86 220.841 1386.57 220.98 1386.29 221.118L1385.15 221.815 1377.26 226.763 1383.88 213.53 1435.77 214.999 1389.05 220.649 1387.14 220.843ZM1375.31 191.954 1438.63 211.914 1383.78 209.569 1375.31 191.954ZM1455.58 214.333C1455.52 213.555 1454.89 212.913 1454.11 212.693L1372.18 186.763C1371.4 186.543 1370.62 186.748 1370.05 187.309 1369.48 187.869 1369.4 188.788 1369.75 189.427L1379.26 209.244 1380.43 211.73 1379.64 213.349 1370.71 230.804 1370.64 230.874 1370.57 230.944C1370.28 231.507 1370.35 232.285 1370.69 232.925 1371.04 233.565 1371.67 233.924 1372.38 233.931L1372.52 233.932 1373.37 233.94 1391.05 234.244 1399.79 252.569C1400.06 253.137 1400.56 253.496 1401.12 253.642 1401.68 253.789 1402.32 253.724 1402.82 253.375L1454.78 216.377C1455.49 215.818 1455.71 215.042 1455.58 214.333Z"/></g></g></g></g></svg>